<?xml version="1.0" encoding="UTF-8"?>
<svg width="1200pt" height="1200pt" version="1.1" viewBox="0 0 1200 1200" xmlns="http://www.w3.org/2000/svg">
 <path d="m613.71 795.83c-11.219 4.1758-23.734 6.5156-36.504 6.5156-13.812 0-27.383-1.5703-39.898-5.2305l-141.84 325.95c-12.781 30-48.504 40.176-79.535 22.691-31.031-17.461-45.637-55.789-32.328-85.777l173.66-398.7h221.65v-37.285l112.13-52.152c29.461-14.34 67.535 10.176 75.359 41.207l54.992 220.6c7.8242 31.285-11.207 62.832-42.492 70.668-31.285 7.8359-63.109-11.219-70.934-42.504l-34.934-140.54z"/>
 <path d="m715.92 567.41c242.77-120.46 336.91-532.99 336.91-567.41h-33.383c-12.516 86.039-116.82 430.25-303.53 530.11z"/>
 <path d="m267.95 477.18c12.77 19.812 38.328 28.68 61.02 19.297l128.28-50.328v178.09h221.65l-0.003906-206.25 198.7-317.87c14.605-23.207 7.8242-53.977-15.648-68.832-23.207-14.605-53.977-7.8242-67.008 14.855l-168.72 270.14-101.7 0.25391c-6.5156 0-13.031 1.043-19.559 3.6484l-175.48 68.84-90.48-137.16c-14.855-22.945-45.637-29.723-68.832-14.867-23.207 14.867-29.988 45.898-15.133 69.098z"/>
 <path d="m552.96 298.3c48.742 0 88.391-39.371 88.391-88.141 0-48.758-39.648-88.391-88.391-88.391-48.77 0-88.402 39.637-88.402 88.391-0.003906 48.77 39.633 88.141 88.402 88.141z"/>
 <path d="m678.91 1200v-397.66l-37.293 17.461v380.2z"/>
</svg>
